# xmcd
#
# Track frame offsets:
# 150
# 27227
# 49047
# 74280
# 94415
# 121442
# 138942
# 159334
#
# Disc length: 2461 seconds
#
#
# Revision: 0
# Processed by: cddbd v1.5.2PL0 Copyright (c) Steve Scherf et al.
# Submitted via: FreeRIP 2.945 
#
DISCID=68099b08
DTITLE=Leonard Cohen - I'm Your Man
DYEAR=1988
DGENRE=Easy Listening
TTITLE0=First We Take Manhattan
TTITLE1=Ain't No Cure For Love
TTITLE2=Everybody Knows
TTITLE3=I'm Your Man
TTITLE4=Take This Waltz
TTITLE5=Jazz Police
TTITLE6=I Can't Forget
TTITLE7=Tower of Song
EXTD=
EXTT0=
EXTT1=
EXTT2=
EXTT3=
EXTT4=
EXTT5=
EXTT6=
EXTT7=
PLAYORDER=
